<svg version="1.2" xmlns="http://www.w3.org/2000/svg" viewBox="0 0 692 391" width="692" height="391"><style>.a{fill:#263238}.b{fill:#a99c96}.c{opacity:.31;fill:#fff}.d{opacity:.5;fill:#fff}.e{opacity:.33;fill:#fff}.f{fill:#fff}</style><path class="a" d="m547.5 74.9l-0.5-0.4c-0.1-0.1-6-5.4-10.8-4.5-4.8 0.9-5.7 3.6-5.8 3.8l-0.9-0.4c0-0.1 1.2-3.3 6.5-4.4 4.5-0.9 9.6 3 11.2 4.3 1-1.9 4.5-7.9 8.2-8.4 4.3-0.5 8.9 3 9 3.2l-0.6 0.8c0 0-4.5-3.5-8.3-3-3.8 0.4-7.7 8.3-7.8 8.4z"/><path class="a" d="m534.2 94.3l-0.5-0.4c-0.1-0.1-6-5.5-10.8-4.5-4.8 1-5.7 3.6-5.7 3.7l-1-0.3c0-0.1 1.2-3.3 6.5-4.4 4.5-0.9 9.6 3 11.2 4.3 1-1.9 4.5-7.9 8.2-8.4 4.3-0.5 8.9 3 9 3.2l-0.6 0.8c0 0-4.5-3.5-8.3-3-3.8 0.4-7.7 8.3-7.7 8.4z"/><path class="a" d="m578.5 94.3l-0.5-0.4c0 0-4.5-4.1-8.1-3.4-3.6 0.7-4.2 2.7-4.3 2.8l-0.9-0.3c0-0.2 0.9-2.7 5-3.5 3.3-0.7 7.1 2.1 8.5 3.2 0.8-1.6 3.5-6 6.3-6.3 3.3-0.4 6.8 2.3 7 2.4l-0.6 0.8c0 0-3.4-2.6-6.3-2.2-2.3 0.3-5 4.7-5.8 6.3z"/><path class="a" d="m630.7 114.7l-0.5-0.4c0 0-2.9-2.6-5.2-2.2-2.3 0.5-2.7 1.7-2.7 1.7l-1-0.3c0-0.1 0.7-1.8 3.5-2.4 2.1-0.4 4.5 1.2 5.5 2 0.7-1.2 2.4-3.8 4.2-4 2.2-0.3 4.6 1.6 4.7 1.7l-0.6 0.7c0 0-2.2-1.6-4-1.4-1.5 0.2-3.2 3-3.7 4.1z"/><path class="a" d="m384.2 91.6h-199.8l0.6-0.8c0.2-0.3 5.4-7.7 11.9-7.1q1.6 0.2 3 0.3c4.6 0.5 7.9 0.9 9.6-1.3q0.3-0.3 0.5-0.7 0.1-0.4 0.3-0.8 0.1-0.5 0.2-0.9 0-0.4 0-0.9c0.3-2.3 0.7-5 5-6.5 2.5-1 5.2-0.3 7.7 0.4 2.8 0.8 5.3 1.5 7.6 0.2 2.3-1.3 2.7-3.9 3.1-6.7q0.1-0.7 0.2-1.4 0.2-0.7 0.4-1.4 0.2-0.7 0.4-1.3 0.3-0.7 0.6-1.3c2.8-4.3 8.8-6.6 13.1-6.6h0.1c2.9 0 5.5 1.4 8 2.6 2.8 1.5 5.5 2.9 8.6 2.3q0.7-0.1 1.3-0.5 0.6-0.3 1.2-0.8 0.5-0.5 0.9-1.1 0.5-0.6 0.7-1.2 0.4-0.9 0.7-1.8 0.3-0.9 0.5-1.8 0.3-0.9 0.5-1.8 0.2-0.9 0.4-1.8c0.8-4.2 1.7-8.2 5.7-11.9q1.7-1.5 3.6-2.7 2-1.2 4-2.2 2.1-0.9 4.3-1.5 2.2-0.6 4.5-0.9c24.6-3.5 51.7 14.8 56.9 38.4 0 0.2 1.2 4.7 5.3 4.7q0.5 0 1-0.1 0.6-0.1 1.1-0.2 0.5-0.1 1-0.3 0.5-0.2 1.1-0.4c5-1.6 12.7-4.2 18.5 4.7 7.4 11.4 5.9 14.5 5.7 14.9zm-197.7-1h197.1c0.1-0.9 0.1-4.5-5.8-13.6-5.4-8.2-12.3-6-17.4-4.3q-0.5 0.3-1.1 0.4-0.5 0.2-1.1 0.4-0.6 0.1-1.1 0.2-0.6 0.1-1.2 0.1c-4.9 0-6.2-5.4-6.2-5.5-5.1-23.1-31.7-41-55.8-37.6q-2.2 0.3-4.3 0.9-2.2 0.5-4.2 1.4-2 0.9-3.9 2.1-1.8 1.2-3.5 2.6c-3.8 3.5-4.6 7.3-5.4 11.4q-0.2 0.9-0.4 1.8-0.2 1-0.5 1.9-0.2 0.9-0.5 1.8-0.4 0.9-0.7 1.8-0.3 0.8-0.8 1.5-0.5 0.7-1.1 1.3-0.7 0.5-1.4 0.9-0.8 0.4-1.6 0.6c-3.4 0.6-6.3-1-9.2-2.4-2.4-1.2-4.9-2.5-7.6-2.5h-0.1c-4.1 0-9.7 2.2-12.2 6.1q-0.3 0.6-0.5 1.2-0.3 0.6-0.5 1.3-0.2 0.6-0.3 1.3-0.1 0.6-0.1 1.3c-0.5 2.9-0.9 5.8-3.6 7.4-2.8 1.5-5.6 0.7-8.4 0-2.4-0.7-4.9-1.3-7.2-0.5-3.7 1.3-4 3.4-4.2 5.7q0 0.5-0.1 1-0.1 0.5-0.3 1-0.1 0.5-0.4 1-0.2 0.4-0.5 0.8c-2 2.6-5.8 2.2-10.5 1.7q-1.5-0.2-3-0.3c-4.8-0.5-8.9 3.9-10.4 5.8z"/><path class="a" d="m419.3 39.8h-80.9l0.5-0.8c0.1-0.1 2.3-3.2 5-3l1.2 0.2c2 0.2 3.1 0.3 3.7-0.4q0-0.2 0.1-0.3 0.1-0.1 0.1-0.3 0.1-0.2 0.1-0.3 0-0.2 0-0.3 0-0.5 0.2-1 0.1-0.4 0.4-0.8 0.3-0.4 0.7-0.7 0.4-0.3 0.9-0.4 0.4-0.1 0.8-0.1 0.4-0.1 0.8-0.1 0.4 0.1 0.9 0.2 0.4 0 0.8 0.2 0.3 0.1 0.6 0.2 0.4 0.1 0.8 0.1 0.3 0 0.7 0 0.3-0.1 0.7-0.2c0.8-0.5 0.9-1.4 1.1-2.5q0-0.3 0.1-0.6 0-0.3 0.1-0.6 0.1-0.3 0.2-0.5 0.1-0.3 0.3-0.6 0.5-0.6 1.1-1.1 0.6-0.5 1.3-0.9 0.7-0.4 1.5-0.6 0.8-0.1 1.6-0.2 0.4 0.1 0.8 0.2 0.5 0.1 0.9 0.2 0.4 0.1 0.8 0.3 0.4 0.2 0.8 0.4 0.4 0.3 0.7 0.5 0.4 0.1 0.9 0.2 0.4 0.2 0.8 0.2 0.4 0.1 0.9 0 0.2 0 0.4-0.2 0.3-0.1 0.4-0.2 0.2-0.2 0.4-0.4 0.1-0.2 0.2-0.5 0.1-0.3 0.3-0.7 0.1-0.3 0.2-0.7 0.1-0.3 0.2-0.7 0-0.3 0.1-0.7 0.1-0.7 0.3-1.4 0.2-0.6 0.5-1.3 0.3-0.6 0.7-1.2 0.4-0.5 0.9-1 0.7-0.6 1.5-1.1 0.8-0.5 1.6-0.9 0.9-0.4 1.8-0.7 0.9-0.2 1.9-0.3c10-1.4 21 6 23.1 15.6 0 0.1 0.4 1.7 1.8 1.7q0.2 0 0.4-0.1 0.2 0 0.4-0.1 0.2 0 0.4-0.1 0.2 0 0.4-0.1c2.1-0.7 5.3-1.8 7.8 2 2.9 4.5 2.5 5.9 2.3 6.3zm-78.9-1h78.2c0-0.6-0.3-2-2.3-5-2-3-4.6-2.3-6.6-1.6q-0.3 0-0.5 0.1-0.2 0.1-0.5 0.1-0.2 0.1-0.4 0.1-0.3 0.1-0.5 0.1-0.5 0-1-0.2-0.5-0.2-0.9-0.5-0.3-0.4-0.6-0.8-0.2-0.5-0.3-1c-2-9.1-12.6-16.1-22.1-14.8q-0.8 0.1-1.7 0.3-0.8 0.3-1.6 0.6-0.8 0.4-1.5 0.8-0.7 0.5-1.4 1.1-0.4 0.4-0.8 0.9-0.3 0.5-0.6 1.1-0.3 0.5-0.4 1.1-0.2 0.6-0.3 1.2 0 0.4-0.1 0.8-0.1 0.4-0.2 0.8-0.1 0.3-0.3 0.7-0.1 0.4-0.2 0.7-0.2 0.4-0.4 0.7-0.2 0.3-0.5 0.6-0.3 0.2-0.6 0.4-0.4 0.1-0.7 0.2-0.5 0.1-1 0-0.6 0-1.1-0.1-0.4-0.2-0.9-0.4-0.5-0.2-0.9-0.5-0.3-0.2-0.7-0.3-0.3-0.2-0.7-0.3-0.4-0.2-0.7-0.2-0.4-0.1-0.8-0.2-0.7 0-1.3 0.2-0.7 0.1-1.3 0.4-0.6 0.3-1.1 0.8-0.6 0.4-1 0.9-0.1 0.3-0.2 0.5-0.1 0.2-0.1 0.5-0.1 0.2-0.2 0.5 0 0.2 0 0.5c-0.2 1.1-0.4 2.4-1.6 3.1-1.2 0.7-2.4 0.4-3.6 0q-0.3-0.1-0.7-0.2-0.3-0.1-0.6-0.1-0.4 0-0.7 0-0.4 0-0.7 0.1-0.3 0.1-0.6 0.3-0.3 0.2-0.5 0.4-0.2 0.3-0.3 0.6-0.1 0.4-0.1 0.7 0 0.2 0 0.5-0.1 0.2-0.2 0.4 0 0.2-0.1 0.4-0.1 0.2-0.3 0.4c-0.9 1.2-2.5 1-4.5 0.8l-1.2-0.1c-1.4 0-2.7 1-3.5 1.9z"/><path class="a" d="m589.1 156.3h-80.8l0.5-0.8c0.1-0.1 2.3-3.2 5-3l1.2 0.1c2 0.2 3 0.3 3.7-0.4q0-0.1 0.1-0.2 0.1-0.2 0.1-0.3 0.1-0.2 0.1-0.3 0-0.2 0-0.4 0-0.4 0.2-0.9 0.1-0.5 0.4-0.9 0.3-0.3 0.7-0.6 0.4-0.3 0.9-0.4 0.4-0.1 0.8-0.2 0.4 0 0.8 0 0.5 0 0.9 0.1 0.4 0.1 0.8 0.2 0.3 0.2 0.7 0.3 0.3 0.1 0.7 0.1 0.3 0 0.7-0.1 0.4 0 0.7-0.2c0.8-0.4 0.9-1.3 1.1-2.4q0-0.3 0.1-0.6 0-0.3 0.1-0.6 0.1-0.3 0.2-0.6 0.1-0.3 0.3-0.5 0.5-0.7 1.1-1.2 0.6-0.5 1.3-0.9 0.7-0.3 1.5-0.5 0.8-0.2 1.6-0.2 0.5 0 0.9 0.1 0.4 0.1 0.9 0.3 0.4 0.1 0.8 0.3 0.4 0.2 0.8 0.4 0.4 0.2 0.8 0.4 0.3 0.2 0.8 0.3 0.4 0.1 0.8 0.2 0.4 0 0.9 0 0.2-0.1 0.4-0.2 0.2-0.1 0.4-0.3 0.2-0.1 0.4-0.4 0.1-0.2 0.2-0.4 0.1-0.3 0.3-0.7 0.1-0.3 0.2-0.7 0.1-0.3 0.2-0.7 0-0.4 0.1-0.7 0.1-0.7 0.3-1.4 0.2-0.7 0.5-1.3 0.3-0.6 0.7-1.2 0.4-0.5 0.9-1 0.7-0.7 1.5-1.2 0.8-0.5 1.6-0.9 0.9-0.3 1.8-0.6 0.9-0.2 1.8-0.3c10-1.5 21 6 23.2 15.6 0 0.1 0.4 1.7 1.8 1.7q0.2-0.1 0.4-0.1 0.2 0 0.4-0.1 0.2-0.1 0.4-0.1 0.2-0.1 0.4-0.1c2.1-0.8 5.3-1.8 7.8 2 2.9 4.5 2.5 5.9 2.3 6.2zm-78.9-1h78.2c0-0.5-0.3-1.9-2.3-5-2-3-4.6-2.3-6.6-1.6q-0.3 0.1-0.5 0.2-0.2 0.1-0.5 0.1-0.2 0.1-0.4 0.1-0.3 0-0.5 0.1-0.5-0.1-1-0.3-0.5-0.1-0.8-0.5-0.4-0.3-0.7-0.8-0.2-0.4-0.3-0.9c-2-9.1-12.6-16.2-22.1-14.8q-0.8 0.1-1.7 0.3-0.8 0.2-1.6 0.6-0.8 0.3-1.5 0.8-0.7 0.4-1.4 1-0.4 0.4-0.8 1-0.3 0.5-0.6 1-0.3 0.6-0.4 1.2-0.2 0.6-0.3 1.2 0 0.4-0.1 0.8-0.1 0.3-0.2 0.7-0.1 0.4-0.3 0.8-0.1 0.3-0.2 0.7-0.2 0.4-0.4 0.7-0.2 0.3-0.5 0.5-0.3 0.3-0.6 0.4-0.4 0.2-0.7 0.3-0.5 0-1 0-0.6-0.1-1-0.2-0.5-0.1-1-0.3-0.5-0.2-0.9-0.5-0.3-0.2-0.7-0.4-0.3-0.1-0.7-0.3-0.4-0.1-0.7-0.2-0.4-0.1-0.8-0.1-0.7 0-1.3 0.2-0.7 0.1-1.3 0.4-0.6 0.3-1.1 0.7-0.5 0.5-1 1-0.1 0.2-0.2 0.5 0 0.2-0.1 0.4-0.1 0.3-0.1 0.5-0.1 0.3-0.1 0.5c-0.2 1.2-0.4 2.5-1.6 3.2-1.2 0.7-2.4 0.3-3.6 0q-0.3-0.1-0.6-0.2-0.4-0.1-0.7-0.1-0.3 0-0.7 0-0.3 0-0.7 0.1-0.3 0.1-0.6 0.3-0.3 0.2-0.5 0.4-0.2 0.3-0.3 0.6-0.1 0.4-0.1 0.7 0 0.3 0 0.5-0.1 0.2-0.1 0.4-0.1 0.2-0.2 0.4-0.1 0.2-0.2 0.4c-1 1.2-2.6 1-4.5 0.8-0.4 0-0.8-0.1-1.3-0.1-1.4-0.1-2.8 1-3.5 1.8z"/><path class="a" d="m468.6 150.8h-123.2l0.5-0.8c0.2-0.2 3.4-4.8 7.5-4.5l1.9 0.2c2.8 0.3 4.8 0.6 5.8-0.7q0.1-0.2 0.2-0.4 0.1-0.3 0.2-0.5 0.1-0.3 0.1-0.5 0.1-0.3 0.1-0.6 0-0.7 0.2-1.4 0.2-0.6 0.6-1.2 0.4-0.6 1-1 0.6-0.4 1.3-0.5c1.6-0.6 3.3-0.2 4.9 0.2 1.6 0.5 3.2 0.9 4.5 0.1 1.3-0.7 1.6-2.3 1.8-3.9q0.1-0.5 0.1-0.9 0.1-0.4 0.3-0.9 0.1-0.4 0.2-0.8 0.2-0.4 0.4-0.8c1.7-2.7 5.5-4.2 8.2-4.2q0.7 0.1 1.3 0.2 0.7 0.2 1.3 0.4 0.6 0.2 1.2 0.5 0.6 0.2 1.2 0.6c1.7 0.9 3.4 1.7 5.2 1.4q0.4-0.1 0.8-0.3 0.3-0.2 0.6-0.5 0.4-0.3 0.6-0.6 0.2-0.4 0.4-0.8 0.2-0.5 0.4-1 0.2-0.6 0.3-1.1 0.2-0.6 0.3-1.1 0.1-0.6 0.2-1.1c0.6-2.7 1.1-5.1 3.6-7.4q1.1-1 2.3-1.7 1.2-0.8 2.5-1.4 1.3-0.5 2.6-0.9 1.4-0.4 2.8-0.6c15.2-2.1 31.9 9.2 35.2 23.7 0.1 0.3 0.7 2.8 3 2.8q0.3 0 0.6-0.1 0.4 0 0.7-0.1 0.3-0.1 0.6-0.2 0.3-0.1 0.6-0.2c3.2-1.1 8-2.7 11.6 3 4.5 6.9 3.8 9 3.6 9.3zm-121.3-1h120.6c0-0.7-0.2-2.9-3.6-8-3.2-5-7.2-3.6-10.4-2.5q-0.4 0.1-0.7 0.2-0.4 0.1-0.7 0.2-0.4 0.1-0.7 0.1-0.4 0.1-0.8 0.1c-2.4 0-3.6-2.2-4-3.5-3.1-14.1-19.3-25-34-23q-1.4 0.2-2.7 0.6-1.3 0.3-2.5 0.9-1.2 0.5-2.3 1.2-1.2 0.7-2.2 1.6c-2.3 2.1-2.7 4.3-3.3 6.9q-0.1 0.6-0.2 1.2-0.1 0.5-0.3 1.1-0.2 0.6-0.4 1.1-0.1 0.6-0.4 1.1-0.2 0.6-0.5 1-0.3 0.5-0.7 0.8-0.4 0.4-0.9 0.6-0.5 0.3-1 0.4c-2.2 0.3-4-0.6-5.8-1.5q-0.5-0.3-1.1-0.6-0.5-0.2-1.1-0.4-0.6-0.2-1.2-0.3-0.6-0.2-1.2-0.2c-2.4 0-5.9 1.3-7.4 3.6q-0.1 0.4-0.3 0.7-0.1 0.4-0.2 0.8-0.1 0.4-0.2 0.7-0.1 0.4-0.1 0.8c-0.3 1.8-0.6 3.7-2.3 4.7-1.8 1-3.6 0.5-5.3 0-1.5-0.4-3-0.8-4.3-0.3-2.2 0.8-2.3 2-2.5 3.3q0 0.4-0.1 0.7 0 0.3-0.1 0.6-0.1 0.3-0.3 0.6-0.1 0.3-0.3 0.6c-1.3 1.7-3.7 1.4-6.7 1.1l-1.8-0.2c-2.6-0.2-4.9 2-6 3.2z"/><path class="a" d="m476.3 303.9c0 0-7.3-7.6-5.3-7.3 2.1 0.2 5.9 5.9 5.9 5.9 0 0 0-12.5 1.9-9.8 1.8 2.7-0.4 9.8-0.4 9.8 0 0 5.2-8.1 5.1-6.8 0 4.1-4 7.3-4 7.3 0 0 8.4-6.2 7-3.7-1.3 2.5-6.6 4.9-6.6 4.9 0 0 9.6-1.9 6.1-0.6-3.4 1.4-6.6 2.3-6.6 2.3h-2.7c0 0-9-4.5-5.6-3.8q0.7 0.1 1.3 0.3 0.7 0.1 1.4 0.4 0.6 0.2 1.2 0.5 0.7 0.3 1.3 0.6z"/><path class="a" d="m572.6 280.3c0 0-5.7-5.9-4.1-5.7 1.6 0.1 4.5 4.5 4.5 4.5 0 0 0-9.7 1.5-7.5 1.5 2.1-0.3 7.6-0.3 7.6 0 0 4-6.3 4-5.3 0 3.2-3.1 5.7-3.1 5.7 0 0 6.4-4.8 5.4-2.9-1.1 2-5.2 3.8-5.2 3.8 0 0 7.4-1.5 4.8-0.4-2.7 1-5.2 1.8-5.2 1.8h-2.1c0 0-7-3.6-4.4-3q0.6 0 1.1 0.2 0.5 0.1 1.1 0.3 0.5 0.2 1 0.4 0.5 0.2 1 0.5z"/><path class="a" d="m662 259.2c0 0-5.7-5.9-4.1-5.7 1.6 0.2 4.6 4.5 4.6 4.5 0 0 0-9.6 1.5-7.5 1.4 2.1-0.4 7.6-0.4 7.6 0 0 4-6.3 4-5.3 0 3.2-3.1 5.7-3.1 5.7 0 0 6.5-4.8 5.4-2.9-1 2-5.2 3.8-5.2 3.8 0 0 7.5-1.5 4.8-0.4-2.6 1-5.1 1.8-5.1 1.8h-2.1c0 0-7-3.6-4.4-3q0.5 0 1.1 0.2 0.5 0.1 1 0.3 0.5 0.2 1 0.4 0.5 0.2 1 0.5z"/><path class="b" d="m548 307.3c0 0-6.8-7-4.9-6.8 1.9 0.2 5.5 5.5 5.5 5.5 0 0 0-11.6 1.7-9 1.8 2.6-0.3 9-0.3 9 0 0 4.8-7.5 4.8-6.3 0 3.8-3.7 6.8-3.7 6.8 0 0 7.7-5.8 6.5-3.4-1.3 2.3-6.2 4.5-6.2 4.5 0 0 8.9-1.8 5.7-0.5-3.2 1.2-6.2 2.1-6.2 2.1h-2.4c0 0-8.5-4.2-5.3-3.6q0.6 0.1 1.2 0.3 0.7 0.2 1.3 0.4 0.6 0.2 1.2 0.5 0.5 0.2 1.1 0.5z"/><path fill-rule="evenodd" class="a" d="m413.5 277.2l-59.6-66.9-13.2 10.6-65.9-99.2-57.2 12.8-17.2-32.1-16.6-0.8-31.4-61.9-46.9 42.8-22.7-8.1-82.6 84.2-0.7-0.7 83-84.7 22.8 8.2 47.4-43.3 31.7 62.5 16.6 0.9 17.1 31.9 57.2-12.8 0.2 0.3 65.4 98.5 13.1-10.4 60.3 67.5-0.8 0.7z"/><path fill-rule="evenodd" class="a" d="m418.5 282.8l0.7-0.7 6.3 7.1-0.7 0.6z"/><path fill-rule="evenodd" class="a" d="m182 143l5-1.4 0.2 1-4.9 1.4z"/><path fill-rule="evenodd" class="a" d="m192.6 140.1l25-6.8 0.2 1-25 6.8z"/><path fill-rule="evenodd" class="a" d="m123.7 105.3l-0.9-0.5 14-20.5-1-7.1 0.1-0.1 16.1-32.7 0.9 0.4-16.1 32.6 1 7.1-14.1 20.8z"/><path fill-rule="evenodd" class="a" d="m117 113.4l3.5-5.2 0.8 0.6-3.5 5.2z"/><path fill-rule="evenodd" class="a" d="m72.5 156.5l22.8-30.9 0.8 0.6-22.8 30.9z"/><path fill-rule="evenodd" class="a" d="m98.2 123.4l-0.9-0.6 3-4.1 1.4-18-12.6-10.3-5.8-12.9 1-0.4 5.6 12.6 12.9 10.5-1.5 18.9-3.1 4.3z"/><path fill-rule="evenodd" class="a" d="m188.8 114l-4.6-7.6 0.8-0.5 4 6.6 11.4-10.9 0.6 0.7-12.3 11.7z"/><path fill-rule="evenodd" class="a" d="m419.7 274l-0.6-0.8 17.4-14.9 34.4 7.4 53.5-74.8 0.3 0.1 34.2 11.4 28-39.6 0.4 0.3 92 64.9-0.6 0.9-91.6-64.7-27.8 39.4-34.6-11.5-53.3 74.7-34.6-7.4-17.1 14.6z"/><path fill-rule="evenodd" class="a" d="m576.4 212.3l-13.4-5.9 0.4-0.9 12.3 5.4 10.8-47.5 1 0.2-11.1 48.7z"/><path fill-rule="evenodd" class="a" d="m498.2 273.5l-19-3.3 0.2-1 18.1 3.1 26.9-78.2 0.9 0.3-27.1 79.1z"/><path class="b" d="m523.6 188.7c-5.7 0-11.3 1-16.5 3.2-5.3 2.2-10.1 5.3-14.1 9.3-4 4-7.2 8.8-9.4 14-2.2 5.2-3.3 10.9-3.4 16.5q0 4 0.7 7.8 0.8 3.9 2.2 7.6 1.4 3.7 3.4 7 2.1 3.4 4.7 6.3 1.9-0.2 3.9-0.3 1.9 0 3.8 0.1 1.9 0.2 3.8 0.6 1.9 0.4 3.7 1 2.1 0.7 4 1.6 2 0.9 3.8 2 1.9 1 3.6 2.3 1.8 1.3 3.4 2.7h3.9q1.6-1.4 3.3-2.7 1.7-1.3 3.6-2.3 1.8-1.1 3.8-2 2-0.9 4-1.6 1.9-0.6 3.9-1 2-0.4 4-0.6 2.1-0.2 4.1-0.1 2 0.1 4 0.5 2.7-3 4.8-6.3 2.1-3.4 3.5-7.1 1.4-3.7 2.2-7.6 0.7-3.9 0.7-7.9c0-5.6-1.2-11.3-3.4-16.5-2.1-5.2-5.3-10-9.4-14-4-4-8.8-7.2-14-9.3-5.3-2.2-10.9-3.3-16.6-3.2z"/><path class="a" d="m543.8 249q-2 1-4 2-0.5 0.3-1 0.5-0.5 0.3-0.9 0.6-0.5 0.3-1 0.6-0.5 0.3-0.9 0.6-0.7 0.5-1.3 1l7.1-13.2-9.8 15.3c-1 0.8-2 1.6-2.9 2.4q-2.3 2-4.6 4.2l-0.5-14.3 10.2-15.6-10.2 13.3-0.4-12.8-0.8 14.4-0.7 14.4q-2-1.8-4-3.6-1.6-1.4-3.3-2.7l-9.2-15.8 6.7 13.9q-0.5-0.4-1.1-0.8-0.5-0.4-1-0.7-0.4-0.3-0.9-0.6-0.5-0.3-0.9-0.5-0.5-0.3-1-0.6-2-1-4-2-1-0.5-2-0.9-1-0.5-2.1-0.9-1-0.5-2-0.9-1.1-0.4-2.1-0.8 1 0.5 2 1 1 0.4 2 0.9 1 0.5 1.9 1.1 1 0.5 2 1 1.9 1.1 3.8 2.3 0.4 0.3 0.9 0.6 0.4 0.3 0.9 0.6 0.4 0.3 0.8 0.6 0.5 0.3 0.9 0.7 0.8 0.6 1.6 1.3 0.8 0.7 1.6 1.4 0.8 0.8 1.6 1.5 0.8 0.7 1.5 1.5c1.8 1.7 3.5 3.6 5.2 5.4l-0.9 18.2h4.3l-0.6-17.5c1.8-2.1 3.7-4.2 5.7-6.2q0.8-0.7 1.6-1.5 0.7-0.7 1.5-1.4 0.8-0.7 1.7-1.4 0.8-0.7 1.6-1.4 0.4-0.3 0.9-0.7 0.4-0.3 0.8-0.6 0.5-0.3 0.9-0.6 0.5-0.3 0.9-0.6 1.9-1.1 3.8-2.2 1-0.6 1.9-1.1 1-0.5 2-1 1-0.5 2-1 1-0.5 2-0.9-1 0.4-2.1 0.8-1 0.4-2.1 0.8-1 0.5-2 0.9-1 0.5-2 1z"/><path class="b" d="m190.7 247.8c0 12.3-6.9 13.3-15.5 13.3-8.5 0-15.5-1-15.5-13.3 0-12.4 7-38.3 15.5-38.3 8.6 0 15.5 25.9 15.5 38.3z"/><path fill-rule="evenodd" class="a" d="m180.4 253.4l-2.5 0.2 6.7-4.5-4.8 2.4 0.6-1.9-2.1 2.6-2.6 1.3-0.2-8.9 1.4-3.2-1.4 1.8-0.1-5.1 4.2-5.7-4.3 4.4-0.2-11.4-0.3 7.3-2.7-3.1 2.7 4.5-0.4 11.5-2.3-1.6-2.2-3.8 0.9 3-4.3-2.8 7.9 6.8-1.2 37.7h3.2l-0.7-29.9 0.8-0.5 3.9-1.1z"/><path class="b" d="m607.5 205.1c0 24.2-13.5 26-30.3 26-16.7 0-30.2-1.8-30.2-26 0-24.1 13.5-74.7 30.2-74.7 16.8 0 30.3 50.6 30.3 74.7z"/><path class="c" d="m607.5 205.1c0 24.2-13.5 26-30.3 26-16.7 0-30.2-1.8-30.2-26 0-24.1 13.5-74.7 30.2-74.7 16.8 0 30.3 50.6 30.3 74.7z"/><path fill-rule="evenodd" class="a" d="m587.5 216.1l-5 0.4 13-8.8-9.3 4.7 1.3-3.7-4.3 5.2-5 2.5-0.4-17.3 2.7-6.5-2.7 3.6-0.3-10 8.3-11.1-8.3 8.6-0.5-22.2-0.5 14.2-5.3-5.9 5.2 8.6-0.7 22.5-4.6-3.1-4.2-7.4 1.7 5.8-8.3-5.4 15.3 13.2-2.3 73.7h6.3l-1.3-58.4 1.4-1 7.8-2.2z"/><path class="b" d="m672.3 214.7c0 12.3-6.9 13.3-15.5 13.3-8.5 0-15.5-1-15.5-13.3 0-12.4 7-38.3 15.5-38.3 8.6 0 15.5 25.9 15.5 38.3z"/><path class="d" d="m672.3 214.7c0 12.3-6.9 13.3-15.5 13.3-8.5 0-15.5-1-15.5-13.3 0-12.4 7-38.3 15.5-38.3 8.6 0 15.5 25.9 15.5 38.3z"/><path fill-rule="evenodd" class="a" d="m662.1 220.3l-2.6 0.1 6.7-4.5-4.8 2.5 0.7-1.9-2.2 2.6-2.6 1.3-0.2-8.9 1.4-3.3-1.4 1.9-0.1-5.2 4.2-5.6-4.2 4.4-0.3-11.4-0.2 7.3-2.8-3 2.7 4.4-0.3 11.5-2.4-1.6-2.2-3.8 0.9 3-4.2-2.8 7.8 6.8-1.2 37.7h3.3l-0.7-29.9 0.7-0.5 4-1.1z"/><path class="b" d="m40.7 204.2c0 12.4-7 13.3-15.5 13.3-8.6 0-15.5-0.9-15.5-13.3 0-12.4 6.9-38.2 15.5-38.2 8.5 0 15.5 25.8 15.5 38.2z"/><path class="d" d="m40.7 204.2c0 12.4-7 13.3-15.5 13.3-8.6 0-15.5-0.9-15.5-13.3 0-12.4 6.9-38.2 15.5-38.2 8.5 0 15.5 25.8 15.5 38.2z"/><path fill-rule="evenodd" class="a" d="m30.4 209.8l-2.5 0.2 6.6-4.5-4.7 2.4 0.6-1.9-2.2 2.7-2.5 1.3-0.2-8.9 1.3-3.3-1.4 1.8-0.1-5.1 4.3-5.7-4.3 4.4-0.3-11.3-0.2 7.2-2.7-3 2.7 4.4-0.4 11.5-2.4-1.5-2.1-3.9 0.8 3-4.2-2.8 7.8 6.8-1.1 37.8h3.2l-0.7-30 0.8-0.5 3.9-1.1z"/><path class="b" d="m117.5 176.1c-5.7 0-11.3 1.1-16.6 3.3-5.2 2.1-10 5.3-14 9.3-4.1 4-7.3 8.7-9.5 14-2.1 5.2-3.3 10.8-3.3 16.5q0 3.9 0.7 7.8 0.7 3.9 2.1 7.6 1.4 3.7 3.5 7 2.1 3.4 4.7 6.3 1.9-0.3 3.8-0.3 2-0.1 3.9 0.1 1.9 0.2 3.8 0.6 1.9 0.4 3.7 1 2 0.7 4 1.6 1.9 0.8 3.8 1.9 1.9 1.1 3.6 2.4 1.7 1.3 3.3 2.7h4q1.6-1.4 3.3-2.7 1.8-1.3 3.6-2.4 1.9-1.1 3.8-1.9 2-0.9 4.1-1.6 1.9-0.7 3.9-1.1 1.9-0.4 4-0.5 2-0.2 4-0.1 2 0.1 4.1 0.4 2.6-2.9 4.7-6.3 2.1-3.3 3.5-7 1.5-3.7 2.2-7.6 0.7-3.9 0.7-7.9c0-5.7-1.2-11.3-3.4-16.5-2.2-5.3-5.4-10-9.4-14-4-4-8.8-7.2-14.1-9.3-5.2-2.2-10.9-3.3-16.5-3.3z"/><path class="e" d="m117.5 176.1c-5.7 0-11.3 1.1-16.6 3.3-5.2 2.1-10 5.3-14 9.3-4.1 4-7.3 8.7-9.5 14-2.1 5.2-3.3 10.8-3.3 16.5q0 3.9 0.7 7.8 0.7 3.9 2.1 7.6 1.4 3.7 3.5 7 2.1 3.4 4.7 6.3 1.9-0.3 3.8-0.3 2-0.1 3.9 0.1 1.9 0.2 3.8 0.6 1.9 0.4 3.7 1 2 0.7 4 1.6 1.9 0.8 3.8 1.9 1.9 1.1 3.6 2.4 1.7 1.3 3.3 2.7h4q1.6-1.4 3.3-2.7 1.8-1.3 3.6-2.4 1.9-1.1 3.8-1.9 2-0.9 4.1-1.6 1.9-0.7 3.9-1.1 1.9-0.4 4-0.5 2-0.2 4-0.1 2 0.1 4.1 0.4 2.6-2.9 4.7-6.3 2.1-3.3 3.5-7 1.5-3.7 2.2-7.6 0.7-3.9 0.7-7.9c0-5.7-1.2-11.3-3.4-16.5-2.2-5.3-5.4-10-9.4-14-4-4-8.8-7.2-14.1-9.3-5.2-2.2-10.9-3.3-16.5-3.3z"/><path class="a" d="m137.6 236.5q-2 1-4 2-0.5 0.2-0.9 0.5-0.5 0.3-1 0.6-0.5 0.3-0.9 0.6-0.5 0.3-0.9 0.6l-1.4 1 7.1-13.2-9.7 15.2q-1.5 1.2-2.9 2.5-2.4 2-4.6 4.2l-0.5-14.4 10.2-15.5-10.3 13.3-0.5-12.8-0.7 14.4-0.7 14.4q-2-1.9-4-3.6-1.6-1.4-3.3-2.8l-9.2-15.7 6.8 13.9q-0.6-0.5-1.2-0.9-0.5-0.3-0.9-0.6-0.5-0.3-1-0.6-0.4-0.3-0.9-0.6-0.5-0.2-1-0.5-1.9-1.1-4-2-1-0.5-2-1-1-0.4-2.1-0.8-1-0.5-2-0.9-1.1-0.4-2.1-0.8 1 0.5 2 0.9 1.1 0.5 2.1 1 1 0.5 1.9 1 1 0.5 2 1.1 1.9 1.1 3.8 2.2 0.4 0.3 0.9 0.6 0.4 0.3 0.9 0.6 0.4 0.3 0.8 0.7 0.5 0.3 0.9 0.6 0.8 0.7 1.6 1.4 0.9 0.7 1.7 1.4 0.8 0.7 1.5 1.4 0.8 0.8 1.6 1.5c1.7 1.8 3.4 3.6 5.1 5.5l-0.9 18.2h4.2l-0.6-17.5c1.8-2.1 3.8-4.2 5.8-6.2q0.7-0.7 1.5-1.5 0.8-0.7 1.6-1.4 0.8-0.7 1.6-1.4 0.8-0.7 1.7-1.4 0.4-0.3 0.8-0.6 0.4-0.4 0.9-0.7 0.4-0.3 0.9-0.6 0.4-0.3 0.9-0.6 1.8-1.2 3.7-2.2 1-0.5 2-1.1 1-0.5 1.9-1 1-0.5 2-0.9 1-0.5 2-0.9-1 0.3-2 0.7-1.1 0.4-2.1 0.9-1 0.4-2 0.8-1.1 0.5-2.1 1z"/><path class="a" d="m237.8 304.6v-39.6h-51.6v-25.4l44.3-105h37.8v105.6h16.4v24.8h-16.4v39.7zm-26-64.5h26v-72.2z"/><path class="a" d="m345.5 304.7q-15.3 0-25.4-6.3-2.5-1.5-4.7-3.4-2.2-1.9-4.1-4.1-2-2.2-3.5-4.6-1.6-2.5-2.8-5.2-5-11-5-25.5v-76.2q0-14.9 4.8-26.1 1.1-2.7 2.7-5.2 1.5-2.5 3.4-4.8 1.9-2.2 4.1-4.1 2.2-1.9 4.7-3.4 10.1-6.3 25.9-6.3 15.5 0 25.5 6.3 2.4 1.5 4.6 3.4 2.2 1.9 4.1 4.2 1.9 2.2 3.4 4.7 1.5 2.5 2.7 5.2 4.8 11.2 4.8 26.1v76.2q0 14.5-5 25.5-1.2 2.7-2.8 5.2-1.6 2.4-3.5 4.6-1.9 2.2-4.1 4.1-2.3 1.9-4.7 3.4-10.2 6.3-25.1 6.3zm0-28.5q5.7 0 8.2-3.6 0.7-0.9 1.2-2 0.6-1 1-2 0.4-1.1 0.7-2.2 0.3-1.1 0.5-2.3 0.2-1.1 0.3-2.2 0.2-1.2 0.3-2.3 0.1-1.2 0.2-2.3 0-1.2 0-2.3v-75q0-1.2 0-2.4-0.1-1.2-0.2-2.4-0.1-1.3-0.2-2.5-0.1-1.2-0.3-2.4-0.2-1.1-0.5-2.3-0.2-1.1-0.6-2.2-0.5-1.1-1-2.1-0.5-1.1-1.2-2.1-2.5-3.6-8.4-3.6-5.9-0.1-8.5 3.6-0.6 1-1.2 2-0.6 1.1-1 2.2-0.4 1.1-0.7 2.2-0.3 1.2-0.4 2.3-0.2 1.2-0.3 2.4-0.2 1.2-0.3 2.5-0.1 1.2-0.1 2.4-0.1 1.2-0.1 2.4v75q0 1.1 0.1 2.3 0.1 1.1 0.2 2.3 0.1 1.1 0.2 2.3 0.2 1.1 0.4 2.2 0.1 1.2 0.5 2.3 0.3 1.1 0.7 2.2 0.5 1.1 1.1 2.1 0.5 1 1.2 1.9 2.8 3.6 8.2 3.6z"/><path class="a" d="m459.9 304.6v-39.6h-51.6v-25.4l44.3-105h37.8v105.6h16.4v24.8h-16.4v39.7zm-26-64.5h26v-72.2z"/><path class="f" d="m692.1 222.6c-65.4 42.9-194.5 72-343.1 72-153.2 0-285.6-31-348.9-76v172.4h692z"/><path class="a" d="m349 295.2c-74.1 0-146.1-7.3-208.3-21.2-60.5-13.4-109.3-32.4-141-55l0.6-0.8c31.5 22.4 80.2 41.4 140.6 54.8 62.2 13.9 134.1 21.2 208.1 21.2 134.1 0 257-23.7 328.6-63.4l0.5 0.8c-71.7 39.8-194.8 63.6-329.1 63.6z"/><path class="a" d="m683.4 228.6l-0.5-0.8c3.2-1.9 6.3-3.9 9.2-5.8l0.6 0.9c-3 1.9-6.1 3.8-9.3 5.7z"/><path class="b" d="m650.4 212.6c0 25.3-14.2 27.2-31.7 27.2-17.5 0-31.7-1.9-31.7-27.2 0-25.2 14.2-78.1 31.7-78.1 17.5 0 31.7 52.9 31.7 78.1z"/><path fill-rule="evenodd" class="a" d="m629.4 224.1l-5.2 0.4 13.6-9.2-9.7 4.9 1.3-3.8-4.4 5.4-5.3 2.6-0.4-18.1 2.8-6.7-2.8 3.7-0.3-10.5 8.7-11.6-8.7 9-0.6-23.2-0.4 14.8-5.6-6.2 5.5 9.1-0.8 23.5-4.8-3.2-4.4-7.8 1.7 6.1-8.6-5.7 16 13.9-2.4 77.1h6.6l-1.4-61.2 1.5-1 8.1-2.3z"/><path class="a" d="m616.6 289.2c0 0-11.7-12.1-8.4-11.7 3.3 0.4 9.4 9.4 9.4 9.4 0 0 0.1-20 3-15.6 2.9 4.4-0.7 15.7-0.7 15.7 0 0 8.3-13 8.3-10.9 0 6.6-6.4 11.7-6.4 11.7 0 0 13.4-9.9 11.2-5.8-2.2 4.1-10.7 7.8-10.7 7.8 0 0 15.4-3.1 9.9-0.9-5.5 2.2-10.7 3.7-10.7 3.7h-4.2c0 0-14.6-7.3-9.1-6.2q1.1 0.2 2.2 0.4 1.1 0.3 2.1 0.7 1.1 0.3 2.1 0.8 1 0.4 2 0.9z"/><path class="a" d="m56.7 274.2c0 0-10.1-10.5-7.3-10.1 2.9 0.3 8.2 8.1 8.2 8.1 0 0 0.1-17.3 2.6-13.5 2.5 3.8-0.6 13.6-0.6 13.6 0 0 7.2-11.3 7.2-9.5 0 5.7-5.5 10.2-5.5 10.2 0 0 11.5-8.6 9.6-5.1-1.9 3.5-9.3 6.7-9.3 6.7 0 0 13.4-2.6 8.6-0.8-4.7 1.9-9.2 3.2-9.2 3.2h-3.7c0 0-12.6-6.3-7.8-5.4q0.9 0.2 1.9 0.5 0.9 0.2 1.8 0.5 0.9 0.3 1.8 0.7 0.9 0.4 1.7 0.9z"/><path class="b" d="m93.3 198.9c0 25.3-14.2 27.2-31.7 27.2-17.6 0-31.7-1.9-31.7-27.2 0-25.3 14.2-78.2 31.7-78.2 17.5 0 31.7 52.9 31.7 78.2z"/><path fill-rule="evenodd" class="a" d="m72.3 210.4l-5.3 0.3 13.7-9.2-9.8 4.9 1.4-3.8-4.5 5.4-5.2 2.7-0.4-18.2 2.8-6.7-2.9 3.7-0.2-10.5 8.7-11.6-8.8 9-0.5-23.2-0.5 14.8-5.6-6.2 5.5 9.1-0.7 23.5-4.9-3.2-4.4-7.8 1.8 6.1-8.7-5.7 16.1 13.9-2.5 77.2h6.7l-1.4-61.2 1.5-1.1 8.1-2.2z"/><path class="a" d="m167.4 300.5c0 0-10.1-10.5-7.3-10.1 2.9 0.3 8.2 8.1 8.2 8.1 0 0 0-17.3 2.6-13.5 2.5 3.8-0.6 13.6-0.6 13.6 0 0 7.2-11.3 7.2-9.4 0 5.6-5.6 10.1-5.6 10.1 0 0 11.6-8.6 9.7-5.1-1.9 3.5-9.3 6.8-9.3 6.8 0 0 13.3-2.7 8.6-0.8-4.7 1.9-9.2 3.2-9.2 3.2h-3.7c0 0-12.6-6.3-7.8-5.4q0.9 0.2 1.8 0.4 1 0.3 1.9 0.6 0.9 0.3 1.8 0.7 0.8 0.4 1.7 0.8z"/><path class="a" d="m221 323.5c0 0-10.1-10.5-7.3-10.2 2.9 0.3 8.2 8.1 8.2 8.1 0 0 0-17.2 2.6-13.4 2.5 3.7-0.6 13.5-0.6 13.5 0 0 7.2-11.2 7.2-9.4-0.1 5.7-5.6 10.1-5.6 10.1 0 0 11.6-8.5 9.7-5-1.9 3.4-9.2 6.7-9.2 6.7 0 0 13.3-2.7 8.6-0.8-4.8 1.9-9.3 3.2-9.3 3.2h-3.6c0 0-12.6-6.3-7.9-5.4q1 0.2 1.9 0.5 0.9 0.2 1.8 0.5 0.9 0.3 1.8 0.7 0.9 0.4 1.7 0.9z"/><path class="a" d="m364.9 308.1c0-0.1-7.3-7.6-5.2-7.4 2.1 0.3 5.9 5.9 5.9 5.9 0 0 0-12.4 1.9-9.7 1.8 2.7-0.5 9.8-0.5 9.8 0 0 5.2-8.2 5.2-6.8 0 4.1-4 7.3-4 7.3 0 0 8.3-6.2 7-3.7-1.3 2.5-6.7 4.9-6.7 4.9 0 0 9.6-2 6.2-0.6-3.4 1.4-6.6 2.3-6.6 2.3h-2.7c0 0-9.1-4.6-5.6-3.9q0.6 0.2 1.3 0.3 0.7 0.2 1.3 0.4 0.7 0.3 1.3 0.5 0.6 0.3 1.2 0.6z"/><path class="a" d="m648 290c0 0-5.7-5.9-4.1-5.7 1.6 0.2 4.6 4.6 4.6 4.6 0 0 0-9.7 1.5-7.6 1.4 2.1-0.4 7.6-0.4 7.6 0 0 4-6.3 4-5.3 0 3.2-3.1 5.7-3.1 5.7 0 0 6.5-4.8 5.4-2.8-1 1.9-5.2 3.7-5.2 3.7 0 0 7.5-1.5 4.8-0.4-2.6 1.1-5.2 1.8-5.2 1.8h-2c0 0-7.1-3.5-4.4-3q0.5 0.1 1.1 0.2 0.5 0.1 1 0.3 0.5 0.2 1 0.4 0.5 0.2 1 0.5z"/><path class="b" d="m265.9 308.1c0 0-10.1-10.5-7.3-10.2 2.9 0.4 8.2 8.2 8.2 8.2 0 0 0-17.3 2.6-13.5 2.5 3.8-0.6 13.6-0.6 13.6 0 0 7.2-11.3 7.2-9.5-0.1 5.7-5.6 10.2-5.6 10.2 0 0 11.6-8.6 9.7-5.1-1.9 3.5-9.3 6.7-9.3 6.7 0 0 13.3-2.7 8.6-0.8-4.7 1.9-9.2 3.2-9.2 3.2h-3.7c0 0-12.6-6.3-7.9-5.3q1 0.1 1.9 0.4 1 0.2 1.9 0.5 0.9 0.4 1.8 0.7 0.9 0.4 1.7 0.9z"/><path class="b" d="m193 301.1c0 0-6.8-7-4.9-6.8 1.9 0.2 5.5 5.5 5.5 5.5 0 0 0-11.6 1.7-9 1.8 2.6-0.4 9.1-0.4 9.1 0 0 4.9-7.6 4.9-6.3 0 3.8-3.8 6.8-3.8 6.8 0 0 7.8-5.8 6.5-3.5-1.3 2.4-6.2 4.6-6.2 4.6 0 0 8.9-1.8 5.8-0.6-3.2 1.3-6.2 2.2-6.2 2.2h-2.5c0 0-8.4-4.3-5.3-3.6q0.7 0.1 1.3 0.3 0.6 0.1 1.2 0.3 0.6 0.2 1.2 0.5 0.6 0.2 1.2 0.5z"/><path class="b" d="m108.3 328.9c0 0-6.8-7-4.9-6.8 1.9 0.2 5.4 5.4 5.4 5.4 0 0 0.1-11.5 1.8-9 1.7 2.6-0.4 9.1-0.4 9.1 0 0 4.8-7.6 4.8-6.3 0 3.8-3.7 6.8-3.7 6.8 0 0 7.7-5.8 6.5-3.5-1.3 2.4-6.3 4.6-6.3 4.6 0 0 8.9-1.8 5.8-0.6-3.2 1.3-6.2 2.2-6.2 2.2h-2.5c0 0-8.4-4.3-5.2-3.6q0.6 0.1 1.2 0.3 0.7 0.1 1.3 0.3 0.6 0.2 1.2 0.5 0.6 0.3 1.2 0.6z"/><path class="b" d="m335 330.2c0 0-6.8-7-4.9-6.8 1.9 0.2 5.5 5.5 5.5 5.5 0 0 0-11.6 1.7-9 1.7 2.6-0.4 9.1-0.4 9.1 0 0 4.9-7.6 4.9-6.3 0 3.8-3.8 6.8-3.8 6.8 0 0 7.8-5.8 6.5-3.5-1.3 2.4-6.2 4.6-6.2 4.6 0 0 8.9-1.8 5.8-0.6-3.2 1.3-6.2 2.2-6.2 2.2h-2.5c0 0-8.4-4.3-5.3-3.6q0.7 0.1 1.3 0.3 0.6 0.1 1.2 0.3 0.6 0.2 1.2 0.5 0.6 0.2 1.2 0.5z"/><path class="b" d="m445 330.6c0 0-6.8-7-4.9-6.8 1.9 0.2 5.5 5.5 5.5 5.5 0 0 0-11.6 1.7-9 1.7 2.5-0.4 9-0.4 9 0 0 4.9-7.5 4.9-6.3 0 3.8-3.8 6.8-3.8 6.8 0 0 7.8-5.7 6.5-3.4-1.2 2.3-6.2 4.5-6.2 4.5 0 0 8.9-1.8 5.7-0.5-3.1 1.3-6.1 2.1-6.1 2.1h-2.5c0 0-8.4-4.2-5.3-3.6q0.7 0.2 1.3 0.3 0.6 0.2 1.2 0.4 0.6 0.2 1.2 0.4 0.6 0.3 1.2 0.6z"/><path class="b" d="m649.5 308.6c0 0-10.4-10.7-7.4-10.3 2.9 0.3 8.3 8.3 8.3 8.3 0 0 0-17.7 2.6-13.8 2.6 3.9-0.6 13.9-0.6 13.9 0 0 7.4-11.5 7.4-9.7 0 5.8-5.7 10.4-5.7 10.4 0 0 11.8-8.7 9.9-5.2-2 3.5-9.5 6.9-9.5 6.9 0 0 13.6-2.8 8.7-0.8-4.8 1.9-9.4 3.2-9.4 3.2h-3.7c0 0-12.9-6.4-8-5.4q0.9 0.1 1.9 0.4 0.9 0.2 1.9 0.5 0.9 0.4 1.8 0.8 0.9 0.4 1.8 0.8z"/><path class="b" d="m34.5 308.6c0 0-10.3-10.7-7.4-10.3 2.9 0.3 8.3 8.3 8.3 8.3 0 0 0.1-17.7 2.7-13.8 2.6 3.9-0.6 13.9-0.6 13.9 0 0 7.3-11.5 7.3-9.7 0 5.8-5.6 10.4-5.6 10.4 0 0 11.8-8.7 9.8-5.2-2 3.5-9.5 6.9-9.5 6.9 0 0 13.6-2.8 8.8-0.8-4.8 1.9-9.4 3.2-9.4 3.2h-3.8c0 0-12.8-6.4-8-5.4q1 0.1 2 0.4 0.9 0.2 1.8 0.5 1 0.4 1.9 0.8 0.9 0.4 1.7 0.8z"/><path class="b" d="m85.5 293.5c0 0-10.6-18.2-7.6-19.6 3-1.4 9.2 12.5 9.2 12.5 0 0-1.2-26.1 1.6-23.7 2.8 2.4 5.5 20.9 5.5 20.9 0 0 5.6-20.1 7.4-15.9 1.8 4.2-1.4 17-1.4 17 0 0 8-15.4 8.8-10.4 0.8 5.1-3.8 13.3-3.8 13.3 0 0 10.7-10.7 11.5-6.4 0.8 4.2-2.9 8.4-2.9 8.4 0 0 14.1-7.6 10.7-3.4-3.4 4.2-8.4 9.6-8.4 9.6 0 0 13.4-4.8 11.8-2-1.6 2.8-7.6 5.8-7.6 5.8 0 0 11-2 9.8-0.2q-0.4 0.6-0.9 1.1-0.4 0.5-0.9 0.9-0.5 0.5-1.1 0.9-0.5 0.4-1.1 0.7h-50c0 0-13.2-4.8-8-5.2q1.3 0 2.6 0.1 1.2 0.1 2.5 0.3 1.3 0.2 2.5 0.6 1.2 0.3 2.4 0.8c0.8 0.4-16.3-11-8.6-11.8 7.6-0.8 13.8 8.8 13.8 8.8 0 0-10.8-15.2-7-12.8z"/><path class="a" d="m86.1 298.7c0 0-13.6-14.1-9.8-13.7 3.8 0.5 11 11 11 11 0 0 0.1-23.3 3.5-18.2 3.4 5.1-0.8 18.3-0.8 18.3 0 0 9.7-15.2 9.7-12.7-0.1 7.7-7.5 13.7-7.5 13.7 0 0 15.6-11.6 13-6.9-2.6 4.7-12.5 9.1-12.5 9.1 0 0 18-3.6 11.6-1.1-6.4 2.6-12.5 4.4-12.5 4.4h-5c0 0-17-8.6-10.5-7.3q1.3 0.2 2.5 0.6 1.3 0.3 2.5 0.7 1.3 0.4 2.5 1 1.2 0.5 2.3 1.1z"/><path class="a" d="m92 303.1l-5.2-0.1h-0.1c-12.7-6.4-12.4-7.4-12.3-7.8 0.3-0.7 1.1-0.5 2-0.4q1 0.2 1.9 0.4 1 0.3 1.9 0.6 0.9 0.2 1.8 0.6 0.9 0.3 1.8 0.6c-3.8-4.1-9.3-10.4-8.6-12q0.1-0.1 0.2-0.2 0.2-0.1 0.3-0.2 0.2-0.1 0.3-0.1 0.2 0 0.4 0c3.2 0.4 8.4 7.1 10.4 10 0.1-5.5 0.5-17.2 2.8-17.8q0.9-0.3 1.6 0.9c2.5 3.7 1.2 11.3 0.2 15.6 7.1-10.9 8-10.6 8.4-10.5q0.1 0 0.2 0.1 0.1 0.1 0.1 0.2 0.1 0.1 0.1 0.2 0.1 0.1 0 0.2 0 1.4-0.3 2.8-0.3 1.3-0.8 2.6-0.6 1.3-1.3 2.5-0.7 1.2-1.6 2.3c4.5-3.1 8.6-5.6 9.6-4.8 0.5 0.5 0 1.4-0.1 1.7-1.7 3-6.3 5.9-9.5 7.6 9.6-1.8 9.8-1.2 9.9-0.8 0.2 0.6-0.5 1-1.6 1.4-6.3 2.6-12.5 4.3-12.5 4.4zm-4.9-1h4.7c0.7-0.2 6.2-1.9 12.1-4.2-2.4 0.3-6.9 1-11 1.9l-4.1 0.8 0.6 0.7-3.5-2.2q-1.1-0.6-2.3-1.1-1.1-0.5-2.3-0.9-1.2-0.4-2.5-0.7-1.2-0.4-2.5-0.6l-0.4-0.1q1.4 0.9 2.7 1.8 1.4 0.8 2.8 1.6 1.3 0.8 2.8 1.5 1.4 0.8 2.8 1.5zm-10.9-16.6c0 1.3 5.3 7.6 10.3 12.9l2.2 2.2 3.9-1.7c0.1 0 9.8-4.4 12.3-8.9q0-0.1 0-0.1 0-0.1 0.1-0.1 0 0 0-0.1 0 0 0-0.1c-1.4 0.2-7.4 4.1-12.4 7.9l-0.6-0.8c0-0.1 6.8-5.6 7.3-12.7-1.5 1.5-5.4 7.1-8.8 12.4l-2 3.2 1.1-3.6c0-0.2 4.1-13 0.9-17.9-0.3-0.5-0.5-0.5-0.5-0.5-1.1 0.2-2.1 8.6-2.1 18.4v1.6l-0.9-1.3c-2-2.9-7.7-10.5-10.6-10.8z"/><path class="b" d="m535.2 325.6c0 0-20-34.4-14.3-37.1 5.8-2.7 17.5 23.5 17.5 23.5 0 0-2.3-49.3 3-44.8 5.3 4.6 10.2 39.5 10.2 39.5 0 0 10.7-38 14.1-30 3.4 8-2.7 32.1-2.7 32.1 0 0 15.3-29 16.8-19.5 1.5 9.4-7.2 25-7.2 25 0 0 20.1-20.1 21.6-12.1 1.5 7.9-5.3 15.9-5.3 15.9 0 0 26.6-14.4 20.1-6.4-6.4 7.9-15.9 18.2-15.9 18.2 0 0 25.4-9.1 22.4-3.8-3.1 5.3-14.5 11-14.5 11 0 0 20.9-3.8 18.6-0.4-2.2 3.4-7.5 6.8-7.5 6.8h-94.6c0 0-25-9.1-15.2-9.8 9.9-0.8 19 3.4 19 3.4 0 0-30.7-20.9-16.3-22.4 14.4-1.5 26.2 16.7 26.2 16.7 0 0-20.5-28.9-13.3-24.3z"/><path class="a" d="m536.5 335.4c0 0-25.8-26.7-18.5-25.9 7.3 0.8 20.8 20.8 20.8 20.8 0 0 0.2-44 6.6-34.4 6.4 9.6-1.5 34.5-1.5 34.5 0 0 18.4-28.6 18.4-24-0.2 14.5-14.2 25.9-14.2 25.9 0 0 29.4-21.8 24.6-13-4.8 8.8-23.7 17.2-23.7 17.2 0 0 33.9-6.9 21.9-2-12.1 4.9-23.6 8.1-23.6 8.1h-9.3c0 0-32-16-20-13.6 12 2.4 18.5 6.4 18.5 6.4z"/><path class="a" d="m547.4 343.1h-9.5-0.1c-10.9-5.5-23.6-12.4-23-14.3 0.3-0.7 1.2-0.8 3.3-0.4q2.1 0.4 4.1 1 2 0.5 4 1.1 2 0.6 3.9 1.4 2 0.7 3.9 1.6c-5.9-6.2-19.2-20.8-17.7-23.8 0.2-0.4 0.6-0.8 1.7-0.7 6.4 0.7 17 15.2 20.2 19.7 0.1-8.3 0.7-33.4 5-34.7q1.3-0.3 2.6 1.6c5.1 7.7 1.4 24.6-0.5 31.7 6.2-9.5 15-22.4 16.9-21.9 0.2 0.1 0.5 0.3 0.5 1 0 9-5.5 16.9-9.6 21.6 7.4-5.2 18.5-12.6 20.3-11 0.7 0.6 0.2 1.7-0.3 2.5-3.6 6.6-14.5 12.8-20.3 15.7 20.7-4 21-2.8 21.2-2.3 0.2 0.6-0.5 1.1-2.9 2-12 4.8-23.5 8.2-23.6 8.2zm-9.3-1h9.2c1-0.3 12-3.5 23.4-8.1q0.2-0.1 0.4-0.2 0.3-0.1 0.5-0.2 0.2-0.1 0.4-0.2 0.2-0.1 0.4-0.2c-2.9 0-13.6 1.8-23.3 3.8l-4.5 0.9 4.2-1.9c0.2-0.1 18.7-8.4 23.4-17 0.6-1 0.5-1.3 0.5-1.3-1.3-0.9-13.7 7-24.4 15l-0.6-0.8c0.2-0.1 13.8-11.3 14-25.4-2 1.3-10.3 13.1-17.4 24.2l-2 3.2 1.1-3.6c0.1-0.3 7.8-24.8 1.6-34.1-0.4-0.5-1-1.3-1.5-1.2-3 0.9-4.2 22.1-4.2 35.3v1.6l-0.9-1.4c-0.2-0.2-13.5-19.7-20.5-20.5-0.1 0-0.6-0.1-0.6 0.1-1 2.1 10.8 15.9 19.6 24.9l2.8 3-3.4-2.2c-0.1 0-6.5-4-18.3-6.4q-0.3 0-0.5-0.1-0.3 0-0.5 0-0.3-0.1-0.5-0.1-0.3 0-0.5 0c1 1.7 11.8 7.7 22.1 12.9z"/><path class="f" d="m119.8 294.6c0 0 2-1.9 3.8-1.9 1.8 0 7.1 2.6 7.1 2.6 0 0 2.2 3.3 2.4 3.5 0.2 0.2 2.8 1.3 3 1.8 0.2 0.4 0.6 2 0.6 2h-16.4l-3-8z"/><path class="a" d="m137.3 303.1l-17.3-0.1-3.4-8.8 3.1-0.1c0.5-0.5 2.3-1.9 4-1.9 1.8 0 6.7 2.4 7.3 2.6l0.1 0.1 0.1 0.1c1 1.5 2.1 3.3 2.3 3.5l0.7 0.3c1.6 0.8 2.2 1.2 2.4 1.6 0.1 0.4 0.5 1.9 0.6 2zm-16.7-1h15.4q-0.1-0.1-0.1-0.3-0.1-0.2-0.1-0.3-0.1-0.2-0.1-0.4-0.1-0.1-0.1-0.3-0.3-0.1-0.5-0.3-0.2-0.1-0.5-0.2-0.2-0.2-0.4-0.3-0.3-0.1-0.5-0.2-0.2-0.1-0.3-0.1-0.1-0.1-0.3-0.2-0.1 0-0.2-0.1-0.1-0.1-0.2-0.2c-0.2-0.2-1.5-2.2-2.4-3.4-1.5-0.8-5.4-2.5-6.7-2.5-1.6 0-3.5 1.7-3.5 1.7l-0.1 0.1-2 0.1z"/><path class="a" d="m123.6 292.7l-0.1 1.6c0 0 4.2 2.4 4.1 3.3q-0.1 0.4-0.2 0.7-0.1 0.4-0.2 0.8-0.1 0.3-0.3 0.7-0.1 0.3-0.3 0.7l2.2 2.2h-11.4l0.9-6.7c0 0 2.4-3.5 5.3-3.3z"/><path class="f" d="m98.5 293.6c0 0 8.2-12.3 10.1-12.4q1 0 2 0.3 1.1 0.2 2 0.7 0.9 0.5 1.7 1.3 0.8 0.7 1.4 1.5 0.5 1 0.9 1.9 0.4 1 0.8 2 0.3 0.9 0.7 1.9 0.3 1 0.6 2c0.1 0.3 0.5 0.5 2.7 4.1 2.2 3.6 2.1 5.6 2.1 5.6h-31.6q0.2-0.6 0.4-1.3 0.1-0.6 0.4-1.2 0.2-0.7 0.5-1.3 0.3-0.6 0.6-1.2 0.3-0.5 0.8-0.9 0.4-0.4 0.9-0.7 0.5-0.3 1.1-0.6 0.5-0.2 1.1-0.3z"/><path class="a" d="m124 303.1l-32.7-0.1 0.1-0.6q0.2-0.6 0.4-1.3 0.2-0.7 0.4-1.3 0.2-0.7 0.5-1.3 0.3-0.7 0.6-1.3 0.4-0.5 0.9-0.9 0.4-0.4 0.9-0.8 0.5-0.3 1.1-0.6 0.5-0.2 1.1-0.4l0.8-1.2c2-2.9 8.5-12.4 10.4-12.7q1.1 0.1 2.2 0.4 1.1 0.3 2.1 0.8 1 0.5 1.9 1.3 0.8 0.8 1.5 1.7 0.4 0.9 0.9 1.8 0.4 1 0.7 1.9 0.4 1 0.7 2 0.3 0.9 0.6 1.9v0.3l0.2 0.2c0.3 0.4 1 1.3 2.5 3.7 2.3 3.7 2.2 5.9 2.2 6zm-31.4-1h30.4q-0.1-0.7-0.3-1.3-0.2-0.7-0.4-1.3-0.3-0.6-0.6-1.2-0.3-0.6-0.7-1.1-0.3-0.5-0.5-0.9-0.3-0.5-0.6-1-0.3-0.4-0.7-0.9-0.3-0.4-0.6-0.9-0.1 0-0.1-0.1-0.1 0-0.1-0.1 0-0.1-0.1-0.2 0 0 0-0.1-0.1 0-0.1-0.1 0 0 0 0 0-0.1 0-0.1 0-0.1 0-0.1-0.3-1-0.6-1.9-0.3-0.9-0.6-1.9-0.4-0.9-0.8-1.8-0.4-0.9-0.8-1.8-0.6-0.8-1.3-1.5-0.8-0.6-1.6-1.1-0.9-0.5-1.9-0.7-0.9-0.3-1.9-0.3c-1 0.1-5.8 6.3-9.7 12.2l-1 1.5-0.2 0.1q-0.5 0.1-1 0.3-0.5 0.2-1 0.5-0.4 0.3-0.8 0.7-0.4 0.3-0.8 0.8-0.2 0.5-0.5 1-0.2 0.5-0.4 1.1-0.2 0.5-0.4 1.1-0.2 0.5-0.3 1.1z"/><path class="a" d="m111.1 302.4c0 0-0.9-2.2-1-2.5-0.1-0.3-0.1-3.1-0.4-4.3q-0.3-0.6-0.6-1.2-0.3-0.6-0.7-1.2-0.3-0.6-0.7-1.2-0.3-0.6-0.7-1.1l1.7-5.1-0.8-0.7 1.4-3.6-0.8-0.3c-1.9 0.3-10 12.4-10 12.4l-0.9 1.4q-0.6 0.1-1.1 0.3-0.5 0.3-1 0.6-0.5 0.3-1 0.7-0.4 0.4-0.8 0.9-0.3 0.6-0.6 1.2-0.2 0.5-0.4 1.2-0.3 0.6-0.5 1.2-0.1 0.6-0.3 1.3z"/><path class="f" d="m434.8 297.6q0.3-0.2 0.6-0.4 0.2-0.2 0.5-0.3 0.3-0.2 0.7-0.3 0.3-0.1 0.6-0.1c1.1 0 4.5 1.6 4.5 1.6 0 0 1.3 2 1.4 2.2 0.1 0.1 1.8 0.8 1.9 1.1 0.1 0.3 0.4 1.2 0.4 1.2h-10.3l-1.9-5z"/><path class="a" d="m446 303.1h-11.2l-2.3-5.9 2.2-0.1q0.2-0.2 0.5-0.4 0.3-0.2 0.6-0.4 0.4-0.1 0.7-0.2 0.4-0.1 0.7-0.1c1.2 0 4.3 1.4 4.7 1.6l0.1 0.1 0.1 0.1c0.6 0.9 1.3 2 1.4 2.1 0.1 0.2 0.2 0.1 0.4 0.2 1.1 0.6 1.5 0.8 1.6 1.1q0 0.1 0.1 0.3 0 0.2 0.1 0.3 0 0.2 0.1 0.4 0 0.1 0.1 0.3zm-10.6-1h9.3c-0.1-0.3-0.2-0.5-0.2-0.6 0-0.1-0.8-0.4-1.1-0.5q-0.1-0.1-0.2-0.1-0.1 0-0.2-0.1 0 0-0.1-0.1-0.1-0.1-0.2-0.1-0.2-0.3-0.4-0.5-0.2-0.3-0.3-0.6-0.2-0.2-0.4-0.5-0.2-0.3-0.3-0.6-0.5-0.2-1-0.4-0.5-0.3-1-0.4-0.6-0.2-1.1-0.4-0.5-0.1-1-0.3-0.3 0.1-0.6 0.2-0.3 0.1-0.5 0.2-0.3 0.1-0.5 0.3-0.3 0.1-0.5 0.3l-0.1 0.2h-1.1z"/><path class="a" d="m437.2 296.5v1c0 0 2.6 1.5 2.5 2q0 0.3-0.1 0.5-0.1 0.2-0.1 0.5-0.1 0.2-0.2 0.4-0.1 0.2-0.2 0.5l1.4 1.4h-7.2l0.6-4.2c0 0 1.5-2.3 3.3-2.1z"/><path class="f" d="m421.5 297c0 0 5.1-7.7 6.3-7.8q0.6 0 1.3 0.2 0.6 0.2 1.2 0.5 0.6 0.3 1.1 0.7 0.5 0.5 0.9 1 0.3 0.6 0.5 1.2 0.3 0.6 0.5 1.2 0.2 0.6 0.4 1.3 0.2 0.6 0.4 1.2c0.1 0.2 0.3 0.3 1.7 2.6q0.3 0.4 0.5 0.8 0.3 0.4 0.4 0.8 0.2 0.5 0.3 1 0.1 0.4 0.2 0.9h-19.9q0.1-0.4 0.2-0.8 0.2-0.4 0.3-0.8 0.2-0.4 0.3-0.8 0.2-0.4 0.4-0.8 0.2-0.3 0.5-0.5 0.3-0.3 0.6-0.5 0.3-0.2 0.6-0.3 0.4-0.2 0.7-0.3z"/><path class="a" d="m437.6 303.1h-20.9l0.1-0.6q0.1-0.4 0.3-0.9 0.1-0.4 0.2-0.8 0.2-0.4 0.4-0.8 0.2-0.4 0.4-0.8 0.2-0.3 0.5-0.6 0.3-0.3 0.6-0.5 0.3-0.2 0.7-0.4 0.3-0.2 0.7-0.3l0.5-0.7c2-2.9 5.4-7.9 6.6-8q0.8 0 1.5 0.2 0.7 0.2 1.3 0.6 0.7 0.3 1.2 0.8 0.6 0.5 1 1.1 0.3 0.6 0.6 1.2 0.2 0.6 0.5 1.2 0.2 0.6 0.4 1.2 0.2 0.6 0.3 1.2v0.2c0 0 0 0 0.1 0.1 0.2 0.3 0.7 0.8 1.6 2.3q0.3 0.5 0.6 0.9 0.2 0.5 0.4 1 0.2 0.4 0.3 0.9 0.1 0.5 0.1 1.1zm-19.6-1h18.6q-0.1-0.4-0.2-0.8-0.1-0.3-0.3-0.7-0.1-0.3-0.3-0.7-0.2-0.3-0.4-0.6c-0.9-1.5-1.3-2-1.5-2.3q-0.1 0-0.1-0.1 0 0-0.1-0.1 0 0 0-0.1-0.1 0-0.1-0.1v-0.2q-0.2-0.6-0.4-1.1-0.2-0.6-0.4-1.2-0.2-0.6-0.4-1.2-0.3-0.5-0.6-1.1-0.3-0.5-0.8-0.9-0.4-0.3-0.9-0.6-0.5-0.3-1.1-0.5-0.6-0.1-1.2-0.2c-0.6 0.3-3.6 4.2-5.9 7.6l-0.6 1-0.2 0.1q-0.3 0-0.6 0.2-0.3 0.1-0.6 0.3-0.3 0.1-0.5 0.4-0.3 0.2-0.5 0.4-0.1 0.3-0.3 0.6-0.1 0.3-0.2 0.6-0.1 0.3-0.2 0.6-0.1 0.3-0.2 0.7z"/><path class="a" d="m429.4 302.5c0 0-0.6-1.4-0.7-1.5 0-0.2 0-2-0.2-2.7q-0.2-0.4-0.4-0.8-0.2-0.4-0.4-0.7-0.2-0.4-0.4-0.8-0.3-0.4-0.5-0.7l1.1-3.2-0.6-0.4 1-2.3-0.6-0.2c-1.2 0.2-6.2 7.8-6.2 7.8l-0.6 0.9q-0.3 0-0.7 0.2-0.3 0.1-0.6 0.3-0.3 0.2-0.6 0.5-0.3 0.2-0.5 0.5-0.2 0.4-0.4 0.8-0.1 0.3-0.3 0.7-0.1 0.4-0.2 0.8-0.1 0.4-0.2 0.8z"/><path class="f" d="m600.2 327.5c0 0 3.9-3.5 7.2-3.5 3.3 0 13.4 4.9 13.4 4.9 0 0 4.1 6.2 4.4 6.6 0.4 0.4 5.3 2.5 5.7 3.4 0.4 0.8 1.1 3.7 1.1 3.7h-30.9l-5.7-14.9z"/><path class="a" d="m632.7 343.1h-31.9l-6.1-15.9 5.3-0.2c0.7-0.6 4.2-3.5 7.4-3.5 3.3 0 13.2 4.7 13.6 4.9l0.1 0.1 0.1 0.1c1.5 2.4 4.1 6.2 4.4 6.5 0.1 0.1 0.8 0.5 1.5 0.8 2.7 1.4 4 2.1 4.2 2.7 0.4 0.9 1.1 3.7 1.2 3.9zm-31.2-1h29.9c-0.3-0.9-0.7-2.5-0.9-3-0.3-0.6-2.7-1.7-3.9-2.3q-0.2-0.1-0.4-0.2-0.2-0.1-0.5-0.2-0.2-0.2-0.4-0.3-0.2-0.1-0.4-0.3c-0.4-0.4-3.4-5-4.4-6.5-1.2-0.6-10.1-4.8-13.1-4.8-3 0-6.8 3.3-6.8 3.4l-0.2 0.1-4.2 0.1z"/><path class="a" d="m607.4 324l-0.2 2.9c0 0 7.9 4.6 7.7 6.3q-0.1 0.7-0.3 1.4-0.2 0.7-0.5 1.4-0.2 0.7-0.5 1.4-0.2 0.6-0.5 1.3l4 4.2h-21.5l1.6-12.7c0 0 4.7-6.5 10.2-6.2z"/><path class="f" d="m560 325.7c0 0 15.5-23.2 18.9-23.5 3.5-0.4 10.9 2.5 13.6 7.3 2.8 4.8 5.4 14.2 5.6 14.7 0.2 0.6 0.9 0.9 5.1 7.8 4.2 6.8 4.1 10.6 4.1 10.6h-59.8c0 0 1.3-6.1 3.5-9.5 2.2-3.5 7.3-4.8 7.3-4.8z"/><path class="a" d="m607.7 343.1h-60.9l0.2-0.6c0-0.3 1.3-6.2 3.5-9.7 2.1-3.3 6.5-4.7 7.5-5l1.5-2.4c1.6-2.4 15.7-23.4 19.3-23.7 3.7-0.4 11.3 2.6 14.1 7.6 1.7 2.8 3.5 7.6 5.4 14.3q0.2 0.4 0.2 0.5 0 0.1 0.1 0.1 0 0.1 0.1 0.2 0 0.1 0.1 0.1 0 0.1 0.1 0.2c0.6 0.8 1.9 2.5 4.7 7 4.2 6.8 4.1 10.8 4.1 10.9zm-59.6-1h58.6c-0.1-1.2-0.7-4.7-4-9.9q-0.5-0.9-1.1-1.8-0.5-0.8-1.1-1.7-0.6-0.9-1.2-1.7-0.6-0.9-1.2-1.7-0.1-0.1-0.2-0.2-0.1-0.1-0.1-0.2-0.1-0.2-0.2-0.3 0-0.1-0.1-0.2l-0.1-0.5c-2-6.6-3.8-11.3-5.4-14.1-2.6-4.6-9.7-7.5-13.1-7.1-2.3 0.2-12.6 14.4-18.5 23.3l-1.8 2.7-0.2 0.1c0 0-5 1.3-7 4.5q-0.6 1.1-1 2.1-0.5 1.1-0.9 2.2-0.5 1.1-0.8 2.2-0.3 1.2-0.6 2.3z"/><path class="a" d="m583.7 342.2c0 0-1.7-4-1.9-4.5-0.1-0.6-0.1-5.9-0.7-8.1-0.6-2.2-5.1-9-5.1-9l3.3-9.6-1.7-1.3 2.8-6.8-1.6-0.7c-3.6 0.7-18.8 23.5-18.8 23.5l-1.7 2.6c0 0-5.1 1.3-7.3 4.8-1.9 3-3.1 7.8-3.5 9.2z"/></svg>